<?xml version="1.0" encoding="UTF-8" standalone="no"?>
<!DOCTYPE svg PUBLIC "-//W3C//DTD SVG 1.1//EN"
 "http://www.w3.org/Graphics/SVG/1.1/DTD/svg11.dtd">
<!-- Generated by graphviz version 6.0.1 (20220911.2005)
 -->
<!-- Title: Tree Pages: 1 -->
<svg width="749pt" height="314pt"
 viewBox="0.00 0.00 749.00 314.00" xmlns="http://www.w3.org/2000/svg" xmlns:xlink="http://www.w3.org/1999/xlink">
<g id="graph0" class="graph" transform="scale(1 1) rotate(0) translate(4 310)">
<title>Tree</title>
<polygon fill="white" stroke="none" points="-4,4 -4,-310 745,-310 745,4 -4,4"/>
<!-- 0 -->
<g id="node1" class="node">
<title>0</title>
<path fill="#f2eafc" stroke="black" d="M539,-306C539,-306 186,-306 186,-306 180,-306 174,-300 174,-294 174,-294 174,-235 174,-235 174,-229 180,-223 186,-223 186,-223 539,-223 539,-223 545,-223 551,-229 551,-235 551,-235 551,-294 551,-294 551,-300 545,-306 539,-306"/>
<text text-anchor="start" x="182" y="-290.8" font-family="Helvetica,sans-Serif" font-size="14.00">Offensive_rebounds_per_game_percentage ≤ 0.156</text>
<text text-anchor="start" x="323" y="-275.8" font-family="Helvetica,sans-Serif" font-size="14.00">gini = 0.62</text>
<text text-anchor="start" x="309.5" y="-260.8" font-family="Helvetica,sans-Serif" font-size="14.00">samples = 649</text>
<text text-anchor="start" x="278" y="-245.8" font-family="Helvetica,sans-Serif" font-size="14.00">value = [105, 251, 293]</text>
<text text-anchor="start" x="313.5" y="-230.8" font-family="Helvetica,sans-Serif" font-size="14.00">class = Guard</text>
</g>
<!-- 1 -->
<g id="node2" class="node">
<title>1</title>
<path fill="#ad7eee" stroke="black" d="M344,-187C344,-187 81,-187 81,-187 75,-187 69,-181 69,-175 69,-175 69,-116 69,-116 69,-110 75,-104 81,-104 81,-104 344,-104 344,-104 350,-104 356,-110 356,-116 356,-116 356,-175 356,-175 356,-181 350,-187 344,-187"/>
<text text-anchor="start" x="77" y="-171.8" font-family="Helvetica,sans-Serif" font-size="14.00">Assists_per_game_percentage ≤ 0.393</text>
<text text-anchor="start" x="168.5" y="-156.8" font-family="Helvetica,sans-Serif" font-size="14.00">gini = 0.393</text>
<text text-anchor="start" x="159.5" y="-141.8" font-family="Helvetica,sans-Serif" font-size="14.00">samples = 335</text>
<text text-anchor="start" x="141.5" y="-126.8" font-family="Helvetica,sans-Serif" font-size="14.00">value = [4, 84, 247]</text>
<text text-anchor="start" x="163.5" y="-111.8" font-family="Helvetica,sans-Serif" font-size="14.00">class = Guard</text>
</g>
<!-- 0&#45;&gt;1 -->
<g id="edge1" class="edge">
<title>0&#45;&gt;1</title>
<path fill="none" stroke="black" d="M310.46,-222.91C298.24,-213.38 285.13,-203.15 272.59,-193.37"/>
<polygon fill="black" stroke="black" points="274.49,-190.41 264.45,-187.02 270.18,-195.93 274.49,-190.41"/>
<text text-anchor="middle" x="267.52" y="-208.13" font-family="Helvetica,sans-Serif" font-size="14.00">True</text>
</g>
<!-- 4 -->
<g id="node5" class="node">
<title>4</title>
<path fill="#c2f7d8" stroke="black" d="M640.5,-187C640.5,-187 386.5,-187 386.5,-187 380.5,-187 374.5,-181 374.5,-175 374.5,-175 374.5,-116 374.5,-116 374.5,-110 380.5,-104 386.5,-104 386.5,-104 640.5,-104 640.5,-104 646.5,-104 652.5,-110 652.5,-116 652.5,-116 652.5,-175 652.5,-175 652.5,-181 646.5,-187 640.5,-187"/>
<text text-anchor="start" x="382.5" y="-171.8" font-family="Helvetica,sans-Serif" font-size="14.00">3_point_vs_2_point_attempts ≤ 0.118</text>
<text text-anchor="start" x="469.5" y="-156.8" font-family="Helvetica,sans-Serif" font-size="14.00">gini = 0.592</text>
<text text-anchor="start" x="460.5" y="-141.8" font-family="Helvetica,sans-Serif" font-size="14.00">samples = 314</text>
<text text-anchor="start" x="433.5" y="-126.8" font-family="Helvetica,sans-Serif" font-size="14.00">value = [101, 167, 46]</text>
<text text-anchor="start" x="457.5" y="-111.8" font-family="Helvetica,sans-Serif" font-size="14.00">class = Forward</text>
</g>
<!-- 0&#45;&gt;4 -->
<g id="edge4" class="edge">
<title>0&#45;&gt;4</title>
<path fill="none" stroke="black" d="M414.89,-222.91C427.19,-213.38 440.39,-203.15 453.01,-193.37"/>
<polygon fill="black" stroke="black" points="455.44,-195.91 461.2,-187.02 451.16,-190.38 455.44,-195.91"/>
<text text-anchor="middle" x="458.06" y="-208.12" font-family="Helvetica,sans-Serif" font-size="14.00">False</text>
</g>
<!-- 2 -->
<g id="node3" class="node">
<title>2</title>
<path fill="#e0cef8" stroke="black" d="M137,-68C137,-68 12,-68 12,-68 6,-68 0,-62 0,-56 0,-56 0,-12 0,-12 0,-6 6,0 12,0 12,0 137,0 137,0 143,0 149,-6 149,-12 149,-12 149,-56 149,-56 149,-62 143,-68 137,-68"/>
<text text-anchor="start" x="30.5" y="-52.8" font-family="Helvetica,sans-Serif" font-size="14.00">gini = 0.503</text>
<text text-anchor="start" x="21.5" y="-37.8" font-family="Helvetica,sans-Serif" font-size="14.00">samples = 145</text>
<text text-anchor="start" x="8" y="-22.8" font-family="Helvetica,sans-Serif" font-size="14.00">value = [2, 61, 82]</text>
<text text-anchor="start" x="25.5" y="-7.8" font-family="Helvetica,sans-Serif" font-size="14.00">class = Guard</text>
</g>
<!-- 1&#45;&gt;2 -->
<g id="edge2" class="edge">
<title>1&#45;&gt;2</title>
<path fill="none" stroke="black" d="M161.11,-103.73C149.16,-94.24 136.45,-84.16 124.55,-74.72"/>
<polygon fill="black" stroke="black" points="126.48,-71.77 116.47,-68.3 122.12,-77.26 126.48,-71.77"/>
</g>
<!-- 3 -->
<g id="node4" class="node">
<title>3</title>
<path fill="#9457e9" stroke="black" d="M312.5,-68C312.5,-68 178.5,-68 178.5,-68 172.5,-68 166.5,-62 166.5,-56 166.5,-56 166.5,-12 166.5,-12 166.5,-6 172.5,0 178.5,0 178.5,0 312.5,0 312.5,0 318.5,0 324.5,-6 324.5,-12 324.5,-12 324.5,-56 324.5,-56 324.5,-62 318.5,-68 312.5,-68"/>
<text text-anchor="start" x="201.5" y="-52.8" font-family="Helvetica,sans-Serif" font-size="14.00">gini = 0.231</text>
<text text-anchor="start" x="192.5" y="-37.8" font-family="Helvetica,sans-Serif" font-size="14.00">samples = 190</text>
<text text-anchor="start" x="174.5" y="-22.8" font-family="Helvetica,sans-Serif" font-size="14.00">value = [2, 23, 165]</text>
<text text-anchor="start" x="196.5" y="-7.8" font-family="Helvetica,sans-Serif" font-size="14.00">class = Guard</text>
</g>
<!-- 1&#45;&gt;3 -->
<g id="edge3" class="edge">
<title>1&#45;&gt;3</title>
<path fill="none" stroke="black" d="M224.79,-103.73C227.32,-95.34 229.99,-86.47 232.54,-78.01"/>
<polygon fill="black" stroke="black" points="235.93,-78.88 235.46,-68.3 229.23,-76.86 235.93,-78.88"/>
</g>
<!-- 5 -->
<g id="node6" class="node">
<title>5</title>
<path fill="#eca26d" stroke="black" d="M544,-68C544,-68 419,-68 419,-68 413,-68 407,-62 407,-56 407,-56 407,-12 407,-12 407,-6 413,0 419,0 419,0 544,0 544,0 550,0 556,-6 556,-12 556,-12 556,-56 556,-56 556,-62 550,-68 544,-68"/>
<text text-anchor="start" x="437.5" y="-52.8" font-family="Helvetica,sans-Serif" font-size="14.00">gini = 0.331</text>
<text text-anchor="start" x="433" y="-37.8" font-family="Helvetica,sans-Serif" font-size="14.00">samples = 67</text>
<text text-anchor="start" x="415" y="-22.8" font-family="Helvetica,sans-Serif" font-size="14.00">value = [53, 14, 0]</text>
<text text-anchor="start" x="430" y="-7.8" font-family="Helvetica,sans-Serif" font-size="14.00">class = Center</text>
</g>
<!-- 4&#45;&gt;5 -->
<g id="edge5" class="edge">
<title>4&#45;&gt;5</title>
<path fill="none" stroke="black" d="M501.58,-103.73C499.13,-95.34 496.54,-86.47 494.07,-78.01"/>
<polygon fill="black" stroke="black" points="497.4,-76.92 491.23,-68.3 490.68,-78.88 497.4,-76.92"/>
</g>
<!-- 6 -->
<g id="node7" class="node">
<title>6</title>
<path fill="#97f1bd" stroke="black" d="M729,-68C729,-68 586,-68 586,-68 580,-68 574,-62 574,-56 574,-56 574,-12 574,-12 574,-6 580,0 586,0 586,0 729,0 729,0 735,0 741,-6 741,-12 741,-12 741,-56 741,-56 741,-62 735,-68 729,-68"/>
<text text-anchor="start" x="613.5" y="-52.8" font-family="Helvetica,sans-Serif" font-size="14.00">gini = 0.544</text>
<text text-anchor="start" x="604.5" y="-37.8" font-family="Helvetica,sans-Serif" font-size="14.00">samples = 247</text>
<text text-anchor="start" x="582" y="-22.8" font-family="Helvetica,sans-Serif" font-size="14.00">value = [48, 153, 46]</text>
<text text-anchor="start" x="601.5" y="-7.8" font-family="Helvetica,sans-Serif" font-size="14.00">class = Forward</text>
</g>
<!-- 4&#45;&gt;6 -->
<g id="edge6" class="edge">
<title>4&#45;&gt;6</title>
<path fill="none" stroke="black" d="M567.12,-103.73C579.71,-94.15 593.11,-83.96 605.63,-74.44"/>
<polygon fill="black" stroke="black" points="607.87,-77.14 613.71,-68.3 603.63,-71.57 607.87,-77.14"/>
</g>
</g>
</svg>
